<?xml version="1.0" standalone="no"?>
<!DOCTYPE svg PUBLIC "-//W3C//DTD SVG 20010904//EN"
 "http://www.w3.org/TR/2001/REC-SVG-20010904/DTD/svg10.dtd">
<svg version="1.0" xmlns="http://www.w3.org/2000/svg"
 width="600.000000pt" height="600.000000pt" viewBox="0 0 600.000000 600.000000"
 preserveAspectRatio="xMidYMid meet">
<metadata>
Created by potrace 1.11, written by Peter Selinger 2001-2013
</metadata>
<g transform="translate(0.000000,600.000000) scale(0.100000,-0.100000)"
fill="#000000" stroke="none">
<path d="M2048 5687 c-15 -18 -119 -131 -232 -252 l-205 -220 119 -3 120 -3 0
-472 0 -472 240 -240 240 -240 -90 -90 -90 -90 -248 248 -247 247 -227 -227
-228 -228 -90 90 -90 90 220 220 220 220 0 195 0 195 -190 196 -189 197 84 81
c47 45 85 84 85 86 0 3 -152 4 -338 3 l-337 -3 -3 -337 c-1 -186 1 -338 5
-338 4 0 44 36 88 80 l80 80 120 -120 119 -119 -321 -323 c-177 -177 -321
-322 -320 -323 2 0 195 -191 430 -425 l427 -425 307 307 308 307 378 -394 379
-394 169 -3 c93 -2 169 -1 169 2 0 17 -156 189 -361 398 -132 134 -239 246
-239 250 0 4 155 162 345 352 l346 345 344 -347 343 -347 -50 -58 c-28 -32
-122 -132 -208 -223 -183 -192 -344 -370 -339 -373 2 -1 79 0 170 3 l166 5
378 393 379 393 308 -308 308 -308 428 428 427 427 -320 320 -320 320 120 120
120 121 78 -81 c43 -44 80 -80 82 -80 3 0 5 153 5 340 l0 340 -335 0 c-184 0
-335 -3 -335 -8 0 -4 36 -43 80 -87 l80 -80 -195 -195 -195 -195 0 -190 0
-190 226 -226 225 -225 -88 -87 -88 -86 -225 224 -226 225 -244 -245 c-134
-135 -249 -245 -255 -245 -6 0 -49 38 -95 85 l-85 85 243 243 242 242 0 472 0
472 119 3 119 3 -204 220 c-113 121 -220 235 -238 253 l-33 34 -50 -54 c-28
-29 -134 -143 -237 -253 l-186 -200 120 -3 120 -3 0 -372 0 -372 -174 -174
-175 -174 -167 172 -168 173 -166 -174 -167 -173 -176 170 -176 170 -1 377 0
377 124 3 124 3 -232 249 c-128 138 -237 251 -242 252 -5 1 -21 -12 -36 -29z"/>
<path d="M2782 3657 c-116 -117 -212 -217 -212 -222 0 -12 428 -441 432 -434
2 3 100 102 218 222 l215 217 -215 215 c-118 118 -217 215 -220 215 -3 0 -101
-96 -218 -213z"/>
<path d="M1575 3020 l-230 -230 465 0 465 0 -230 230 c-126 127 -232 230 -235
230 -3 0 -109 -103 -235 -230z"/>
<path d="M3955 3020 l-230 -230 458 0 c251 0 457 3 457 8 0 8 -442 452 -450
452 -3 0 -109 -103 -235 -230z"/>
<path d="M580 2438 c1 -236 77 -553 194 -803 227 -486 655 -900 1165 -1130
308 -138 623 -210 967 -222 1096 -37 2078 614 2399 1590 62 188 105 431 105
595 l0 62 -2415 0 -2415 0 0 -92z m4060 -492 c0 -54 -22 -161 -50 -240 -143
-413 -645 -786 -1215 -901 -302 -61 -579 -53 -874 26 -630 168 -1103 618
-1138 1082 l-6 77 1642 0 1641 0 0 -44z"/>
<path d="M1813 1661 c14 -111 123 -248 271 -343 286 -184 733 -294 1046 -259
540 61 1033 341 1052 596 l3 40 -1189 3 -1189 2 6 -39z"/>
</g>
</svg>
