<?xml version="1.0" standalone="no"?>
<!DOCTYPE svg PUBLIC "-//W3C//DTD SVG 20010904//EN"
 "http://www.w3.org/TR/2001/REC-SVG-20010904/DTD/svg10.dtd">
<svg version="1.0" xmlns="http://www.w3.org/2000/svg"
 width="600.000000pt" height="600.000000pt" viewBox="0 0 600.000000 600.000000"
 preserveAspectRatio="xMidYMid meet">
<metadata>
Created by potrace 1.11, written by Peter Selinger 2001-2013
</metadata>
<g transform="translate(0.000000,600.000000) scale(0.100000,-0.100000)"
fill="#000000" stroke="none">
<path d="M0 3000 l0 -3000 3000 0 3000 0 0 3000 0 3000 -3000 0 -3000 0 0
-3000z m2349 2337 l224 -242 -127 -3 -126 -3 0 -367 0 -368 181 -168 181 -169
71 69 c40 38 116 111 169 163 l97 95 171 -164 171 -163 32 30 c18 16 95 85
172 153 77 68 148 132 158 143 15 18 17 51 17 383 l0 364 -150 0 c-82 0 -150
3 -150 8 1 4 24 31 53 60 29 29 129 135 222 236 94 102 172 184 175 184 3 0
106 -108 229 -241 l224 -242 -117 -3 -116 -3 0 -457 1 -457 -232 -238 -232
-239 89 -89 89 -89 240 240 241 240 225 -219 226 -220 94 88 94 88 -203 212
-202 213 0 192 0 193 83 90 c45 49 122 134 172 188 l90 98 -90 83 -90 84 343
0 342 0 0 -326 c0 -257 -3 -324 -12 -318 -7 4 -48 39 -90 77 l-78 69 -129
-119 -130 -118 307 -308 307 -307 -408 -408 -408 -408 -284 286 c-157 157
-290 294 -297 303 -12 16 -53 -22 -388 -358 l-375 -375 -155 0 -155 0 285 284
c157 156 286 290 288 298 1 7 -147 162 -330 345 l-333 332 -337 -334 -337
-333 289 -289 c160 -158 290 -291 290 -295 0 -5 -69 -8 -152 -8 l-153 0 -375
375 -375 374 -217 -227 c-120 -125 -254 -263 -298 -307 l-80 -80 -410 410
-410 410 310 310 310 310 -117 117 -118 117 -68 -74 c-38 -41 -71 -75 -75 -75
-4 0 -6 146 -4 325 l3 325 311 0 311 0 -19 -22 c-10 -13 -44 -50 -76 -83 l-58
-60 190 -190 190 -190 0 -192 0 -191 -215 -209 c-118 -114 -215 -212 -215
-218 0 -6 37 -47 83 -93 l82 -82 220 220 220 220 240 -240 240 -240 90 90 c49
49 85 93 81 97 -4 4 -109 112 -232 240 l-225 231 1 456 0 456 -115 0 c-63 0
-115 3 -115 8 1 4 24 31 53 60 29 29 129 135 222 236 94 102 172 184 175 184
3 0 106 -108 229 -241z m846 -2167 l-190 -190 -190 190 -190 190 190 190 190
190 190 -190 190 -190 -190 -190z m-1331 -388 c-224 -1 -410 0 -413 3 -3 3 87
98 199 210 l205 204 208 -207 207 -207 -406 -3z m2696 6 c0 -5 -186 -8 -412
-8 l-413 0 210 210 210 210 202 -202 c112 -112 203 -206 203 -210z m767 -385
c-59 -1169 -1061 -2046 -2337 -2044 -1191 1 -2165 794 -2304 1875 -12 91 -22
256 -17 289 1 4 1050 7 2333 7 l2331 0 -6 -127z"/>
<path d="M1413 1947 c42 -536 520 -958 1237 -1089 159 -29 513 -32 674 -5 399
67 733 226 966 458 182 181 286 399 306 642 l7 77 -1598 0 -1598 0 6 -83z
m2734 -219 c-8 -66 -53 -158 -109 -222 -133 -154 -428 -300 -743 -367 -159
-34 -431 -34 -590 -1 -209 45 -419 128 -565 223 -150 97 -265 249 -277 365
l-6 54 1148 0 1148 0 -6 -52z"/>
</g>
</svg>
