<?xml version="1.0" standalone="no"?>
<!DOCTYPE svg PUBLIC "-//W3C//DTD SVG 20010904//EN"
 "http://www.w3.org/TR/2001/REC-SVG-20010904/DTD/svg10.dtd">
<svg version="1.0" xmlns="http://www.w3.org/2000/svg"
 width="600.000000pt" height="600.000000pt" viewBox="0 0 600.000000 600.000000"
 preserveAspectRatio="xMidYMid meet">
<metadata>
Created by potrace 1.11, written by Peter Selinger 2001-2013
</metadata>
<g transform="translate(0.000000,600.000000) scale(0.100000,-0.100000)"
fill="#000000" stroke="none">
<path d="M2005 5827 c-11 -14 -70 -78 -131 -144 -61 -65 -136 -145 -167 -178
-30 -33 -83 -89 -117 -125 l-62 -65 126 -3 126 -3 -1 -503 -1 -504 260 -263
261 -263 -99 -99 -99 -99 -260 261 c-143 144 -264 261 -268 261 -5 0 -114
-106 -243 -235 -129 -129 -239 -235 -244 -235 -5 0 -49 42 -98 93 l-90 92 241
237 241 237 0 208 0 209 -205 204 c-113 113 -205 210 -205 215 0 6 28 40 63
76 34 36 71 75 81 87 l19 22 -349 0 -350 0 0 -360 c1 -198 3 -360 7 -360 3 0
41 38 84 84 l78 84 128 -132 128 -131 -339 -338 c-187 -186 -340 -340 -340
-342 0 -1 203 -206 452 -455 l452 -452 221 229 c122 125 269 278 328 338 l107
110 407 -413 408 -412 173 0 c94 0 172 3 172 7 0 3 -138 144 -307 314 -168
169 -310 315 -315 323 -7 13 69 94 357 381 202 201 368 365 370 365 1 0 706
-705 733 -735 10 -10 -39 -62 -324 -347 l-309 -308 173 1 173 1 409 411 409
412 330 -335 329 -335 453 451 452 452 -337 336 c-186 185 -336 340 -334 345
5 12 267 251 276 251 5 0 17 -8 28 -18 46 -43 163 -142 168 -142 3 0 6 162 5
360 l0 360 -382 0 -382 -1 40 -36 c22 -20 68 -62 102 -93 l61 -57 -31 -34
c-18 -19 -59 -63 -92 -99 -33 -36 -105 -114 -160 -173 l-100 -108 -1 -209 -1
-209 50 -53 c27 -29 111 -118 186 -197 75 -79 145 -154 156 -166 50 -53 59
-66 48 -73 -5 -4 -50 -44 -99 -89 -49 -45 -93 -82 -97 -83 -5 -1 -116 104
-247 234 -131 130 -242 236 -247 236 -4 0 -126 -118 -270 -262 l-262 -262
-101 100 -100 99 27 26 c16 15 133 132 261 262 l232 235 0 506 0 505 125 3
126 3 -53 56 c-29 31 -100 107 -158 169 -58 63 -118 128 -135 145 -16 17 -58
61 -92 97 l-63 66 -107 -116 c-160 -170 -242 -258 -321 -342 l-70 -75 167 -3
167 -2 -1 -408 0 -408 -44 -39 c-24 -22 -49 -45 -55 -50 -6 -6 -67 -59 -136
-120 -69 -60 -136 -119 -150 -132 -14 -13 -27 -23 -30 -23 -5 0 -167 155 -305
290 l-70 69 -185 -179 c-102 -99 -188 -179 -192 -178 -3 2 -59 53 -125 114
-65 61 -131 123 -148 138 -96 88 -115 109 -116 129 -1 29 -1 757 0 779 1 15
16 18 135 20 l134 3 -61 65 c-34 36 -118 126 -187 200 -69 74 -154 165 -190
203 l-65 68 -20 -24z"/>
<path d="M2795 3615 c-113 -112 -205 -208 -205 -212 0 -4 93 -101 207 -215
l208 -208 211 211 212 212 -208 208 c-115 115 -211 209 -214 209 -3 0 -98 -92
-211 -205z"/>
<path d="M1506 2991 l-228 -229 461 0 461 0 -227 229 c-125 126 -230 229 -233
229 -3 0 -108 -103 -234 -229z"/>
<path d="M4043 2994 c-123 -124 -223 -227 -223 -230 0 -2 206 -4 457 -4 l456
1 -229 229 c-125 127 -231 230 -234 229 -3 -1 -105 -102 -227 -225z"/>
<path d="M425 2470 c-5 -8 2 -173 10 -248 8 -74 33 -226 47 -277 5 -22 12 -51
14 -64 7 -34 63 -208 86 -266 260 -641 773 -1124 1457 -1371 75 -28 248 -79
296 -88 6 -2 35 -8 65 -14 109 -23 216 -39 316 -47 96 -9 125 -13 131 -19 3
-3 14 -1 24 5 13 6 19 6 19 -1 0 -12 22 -9 32 5 5 7 8 6 8 -1 0 -12 88 -13
107 -1 6 4 14 3 17 -1 6 -10 42 -9 52 1 4 3 14 2 24 -3 10 -5 20 -6 24 -3 4 4
21 8 39 9 76 5 166 15 222 24 33 5 78 12 100 15 22 4 56 10 75 15 19 5 46 11
60 13 41 8 109 27 225 64 658 211 1182 653 1465 1237 88 181 161 397 186 546
2 14 7 36 10 48 2 13 7 43 10 65 3 23 7 53 10 67 4 23 12 146 17 250 l2 46
-2573 0 c-1416 0 -2575 -3 -2577 -6z m4336 -559 c1 -9 1 -18 1 -21 -8 -103
-14 -150 -27 -206 -83 -368 -377 -687 -812 -882 -412 -185 -918 -239 -1373
-148 -115 23 -117 24 -214 52 -326 95 -645 293 -836 519 -72 85 -190 296 -190
339 0 8 -4 17 -8 20 -8 4 -17 41 -38 136 -9 44 -19 168 -15 196 1 8 488 11
1756 11 1605 0 1755 -1 1756 -16z"/>
<path d="M1737 1647 c-8 -23 23 -130 55 -189 171 -320 847 -587 1353 -533 477
50 956 294 1079 550 28 58 46 119 46 157 l0 28 -1264 0 c-991 0 -1265 -3
-1269 -13z"/>
</g>
</svg>
